{"nbformat":4,"nbformat_minor":0,"metadata":{"colab":{"name":"Session_11_YoloV3_Video.ipynb","provenance":[],"collapsed_sections":[],"authorship_tag":"ABX9TyNH7taVoF6MJMciRroHFePM"},"kernelspec":{"name":"python3","display_name":"Python 3"},"language_info":{"name":"python"}},"cells":[{"cell_type":"code","execution_count":1,"metadata":{"colab":{"base_uri":"https://localhost:8080/"},"id":"E15vmS5RzkbI","executionInfo":{"status":"ok","timestamp":1644248295220,"user_tz":-60,"elapsed":4320,"user":{"displayName":"Lavanya Nemani","photoUrl":"https://lh3.googleusercontent.com/a-/AOh14Gju3SlZQ0duQdpEWDk86a-6AS3SfaGv_H9FWpam=s64","userId":"17104860808699095583"}},"outputId":"b1a234ee-b483-49f4-b065-295d5270df25"},"outputs":[{"output_type":"stream","name":"stdout","text":["Drive already mounted at /content/gdrive; to attempt to forcibly remount, call drive.mount(\"/content/gdrive\", force_remount=True).\n"]}],"source":["# Mounting to google drive\n","from google.colab import drive\n","drive.mount('/content/gdrive')"]},{"cell_type":"code","source":["# Changing directory to Session 14 project folder\n","% cd /content/gdrive/MyDrive/TSAI-EVA-7.0/11_YOLO/"],"metadata":{"colab":{"base_uri":"https://localhost:8080/"},"id":"2B61DeMVzwPv","executionInfo":{"status":"ok","timestamp":1644248295221,"user_tz":-60,"elapsed":12,"user":{"displayName":"Lavanya Nemani","photoUrl":"https://lh3.googleusercontent.com/a-/AOh14Gju3SlZQ0duQdpEWDk86a-6AS3SfaGv_H9FWpam=s64","userId":"17104860808699095583"}},"outputId":"647ab36f-863a-41c2-9148-f4c342e00e44"},"execution_count":2,"outputs":[{"output_type":"stream","name":"stdout","text":["/content/gdrive/MyDrive/TSAI-EVA-7.0/11_YOLO\n"]}]},{"cell_type":"code","source":["% cd YoloV3/"],"metadata":{"id":"msqYR8gtz548","colab":{"base_uri":"https://localhost:8080/"},"executionInfo":{"status":"ok","timestamp":1644248295222,"user_tz":-60,"elapsed":9,"user":{"displayName":"Lavanya Nemani","photoUrl":"https://lh3.googleusercontent.com/a-/AOh14Gju3SlZQ0duQdpEWDk86a-6AS3SfaGv_H9FWpam=s64","userId":"17104860808699095583"}},"outputId":"3aeb4796-378d-443a-a0c1-35baf060eefd"},"execution_count":3,"outputs":[{"output_type":"stream","name":"stdout","text":["/content/gdrive/MyDrive/TSAI-EVA-7.0/11_YOLO/YoloV3\n"]}]},{"cell_type":"markdown","source":["# Convert video to images"],"metadata":{"id":"Nl3OOrpzzS3V"}},{"cell_type":"code","source":["! ffmpeg -i ./data/example_vid.mp4 ./data/video_images/image-%03d.jpg"],"metadata":{"id":"HQzYudH0-ARF","colab":{"base_uri":"https://localhost:8080/"},"outputId":"9a1b632f-aad8-486f-ae67-73d2c300b47f","executionInfo":{"status":"ok","timestamp":1644247676106,"user_tz":-60,"elapsed":21285,"user":{"displayName":"Lavanya Nemani","photoUrl":"https://lh3.googleusercontent.com/a-/AOh14Gju3SlZQ0duQdpEWDk86a-6AS3SfaGv_H9FWpam=s64","userId":"17104860808699095583"}}},"execution_count":5,"outputs":[{"output_type":"stream","name":"stdout","text":["ffmpeg version 3.4.8-0ubuntu0.2 Copyright (c) 2000-2020 the FFmpeg developers\n","  built with gcc 7 (Ubuntu 7.5.0-3ubuntu1~18.04)\n","  configuration: --prefix=/usr --extra-version=0ubuntu0.2 --toolchain=hardened --libdir=/usr/lib/x86_64-linux-gnu --incdir=/usr/include/x86_64-linux-gnu --enable-gpl --disable-stripping --enable-avresample --enable-avisynth --enable-gnutls --enable-ladspa --enable-libass --enable-libbluray --enable-libbs2b --enable-libcaca --enable-libcdio --enable-libflite --enable-libfontconfig --enable-libfreetype --enable-libfribidi --enable-libgme --enable-libgsm --enable-libmp3lame --enable-libmysofa --enable-libopenjpeg --enable-libopenmpt --enable-libopus --enable-libpulse --enable-librubberband --enable-librsvg --enable-libshine --enable-libsnappy --enable-libsoxr --enable-libspeex --enable-libssh --enable-libtheora --enable-libtwolame --enable-libvorbis --enable-libvpx --enable-libwavpack --enable-libwebp --enable-libx265 --enable-libxml2 --enable-libxvid --enable-libzmq --enable-libzvbi --enable-omx --enable-openal --enable-opengl --enable-sdl2 --enable-libdc1394 --enable-libdrm --enable-libiec61883 --enable-chromaprint --enable-frei0r --enable-libopencv --enable-libx264 --enable-shared\n","  libavutil      55. 78.100 / 55. 78.100\n","  libavcodec     57.107.100 / 57.107.100\n","  libavformat    57. 83.100 / 57. 83.100\n","  libavdevice    57. 10.100 / 57. 10.100\n","  libavfilter     6.107.100 /  6.107.100\n","  libavresample   3.  7.  0 /  3.  7.  0\n","  libswscale      4.  8.100 /  4.  8.100\n","  libswresample   2.  9.100 /  2.  9.100\n","  libpostproc    54.  7.100 / 54.  7.100\n","Input #0, mov,mp4,m4a,3gp,3g2,mj2, from './data/example_vid.mp4':\n","  Metadata:\n","    major_brand     : isom\n","    minor_version   : 0\n","    compatible_brands: mp41avc1\n","    creation_time   : 2022-02-07T15:26:07.000000Z\n","    playback_requirements: QuickTime 6.0 or greater\n","    playback_requirements-eng: QuickTime 6.0 or greater\n","    encoder         : vlc 3.0.8 stream output\n","    encoder-eng     : vlc 3.0.8 stream output\n","  Duration: 00:00:27.50, start: 0.000000, bitrate: 3242 kb/s\n","    Stream #0:0(eng): Video: h264 (High) (avc1 / 0x31637661), yuv420p(tv, bt709), 1280x720 [SAR 1:1 DAR 16:9], 3040 kb/s, 36 fps, 36 tbr, 1000k tbn, 47.95 tbc (default)\n","    Metadata:\n","      creation_time   : 2022-02-07T15:26:07.000000Z\n","      handler_name    : VideoHandler\n","    Stream #0:1(eng): Audio: aac (LC) (mp4a / 0x6134706D), 44100 Hz, stereo, fltp, 192 kb/s (default)\n","    Metadata:\n","      creation_time   : 2022-02-07T15:26:07.000000Z\n","      handler_name    : SoundHandler\n","Stream mapping:\n","  Stream #0:0 -> #0:0 (h264 (native) -> mjpeg (native))\n","Press [q] to stop, [?] for help\n","\u001b[1;34m[swscaler @ 0x55f7c75ea000] \u001b[0m\u001b[0;33mdeprecated pixel format used, make sure you did set range correctly\n","\u001b[0mOutput #0, image2, to './data/video_images/image-%03d.jpg':\n","  Metadata:\n","    major_brand     : isom\n","    minor_version   : 0\n","    compatible_brands: mp41avc1\n","    encoder         : Lavf57.83.100\n","    playback_requirements: QuickTime 6.0 or greater\n","    playback_requirements-eng: QuickTime 6.0 or greater\n","    Stream #0:0(eng): Video: mjpeg, yuvj420p(pc), 1280x720 [SAR 1:1 DAR 16:9], q=2-31, 200 kb/s, 36 fps, 36 tbn, 36 tbc (default)\n","    Metadata:\n","      creation_time   : 2022-02-07T15:26:07.000000Z\n","      handler_name    : VideoHandler\n","      encoder         : Lavc57.107.100 mjpeg\n","    Side data:\n","      cpb: bitrate max/min/avg: 0/0/200000 buffer size: 0 vbv_delay: -1\n","frame=  990 fps= 52 q=24.8 Lsize=N/A time=00:00:27.50 bitrate=N/A speed=1.44x    \n","video:26218kB audio:0kB subtitle:0kB other streams:0kB global headers:0kB muxing overhead: unknown\n"]}]},{"cell_type":"markdown","source":["# Convert images to video"],"metadata":{"id":"jyCp5-qvzYwL"}},{"cell_type":"code","source":["! ffmpeg -i ./data/predictions/video/image-%03d.jpg ./data/predictions/video.mp4"],"metadata":{"id":"AfuYaF5MhMuz","colab":{"base_uri":"https://localhost:8080/"},"executionInfo":{"status":"ok","timestamp":1644248494048,"user_tz":-60,"elapsed":194101,"user":{"displayName":"Lavanya Nemani","photoUrl":"https://lh3.googleusercontent.com/a-/AOh14Gju3SlZQ0duQdpEWDk86a-6AS3SfaGv_H9FWpam=s64","userId":"17104860808699095583"}},"outputId":"9449d585-d122-4a0e-923a-3fc56754f19a"},"execution_count":4,"outputs":[{"output_type":"stream","name":"stdout","text":["ffmpeg version 3.4.8-0ubuntu0.2 Copyright (c) 2000-2020 the FFmpeg developers\n","  built with gcc 7 (Ubuntu 7.5.0-3ubuntu1~18.04)\n","  configuration: --prefix=/usr --extra-version=0ubuntu0.2 --toolchain=hardened --libdir=/usr/lib/x86_64-linux-gnu --incdir=/usr/include/x86_64-linux-gnu --enable-gpl --disable-stripping --enable-avresample --enable-avisynth --enable-gnutls --enable-ladspa --enable-libass --enable-libbluray --enable-libbs2b --enable-libcaca --enable-libcdio --enable-libflite --enable-libfontconfig --enable-libfreetype --enable-libfribidi --enable-libgme --enable-libgsm --enable-libmp3lame --enable-libmysofa --enable-libopenjpeg --enable-libopenmpt --enable-libopus --enable-libpulse --enable-librubberband --enable-librsvg --enable-libshine --enable-libsnappy --enable-libsoxr --enable-libspeex --enable-libssh --enable-libtheora --enable-libtwolame --enable-libvorbis --enable-libvpx --enable-libwavpack --enable-libwebp --enable-libx265 --enable-libxml2 --enable-libxvid --enable-libzmq --enable-libzvbi --enable-omx --enable-openal --enable-opengl --enable-sdl2 --enable-libdc1394 --enable-libdrm --enable-libiec61883 --enable-chromaprint --enable-frei0r --enable-libopencv --enable-libx264 --enable-shared\n","  libavutil      55. 78.100 / 55. 78.100\n","  libavcodec     57.107.100 / 57.107.100\n","  libavformat    57. 83.100 / 57. 83.100\n","  libavdevice    57. 10.100 / 57. 10.100\n","  libavfilter     6.107.100 /  6.107.100\n","  libavresample   3.  7.  0 /  3.  7.  0\n","  libswscale      4.  8.100 /  4.  8.100\n","  libswresample   2.  9.100 /  2.  9.100\n","  libpostproc    54.  7.100 / 54.  7.100\n","Input #0, image2, from './data/predictions/video/image-%03d.jpg':\n","  Duration: 00:00:39.60, start: 0.000000, bitrate: N/A\n","    Stream #0:0: Video: mjpeg, yuvj420p(pc, bt470bg/unknown/unknown), 1280x720 [SAR 1:1 DAR 16:9], 25 fps, 25 tbr, 25 tbn, 25 tbc\n","Stream mapping:\n","  Stream #0:0 -> #0:0 (mjpeg (native) -> h264 (libx264))\n","Press [q] to stop, [?] for help\n","\u001b[1;36m[libx264 @ 0x55c69e05be00] \u001b[0musing SAR=1/1\n","\u001b[1;36m[libx264 @ 0x55c69e05be00] \u001b[0musing cpu capabilities: MMX2 SSE2Fast SSSE3 SSE4.2 AVX FMA3 BMI2 AVX2\n","\u001b[1;36m[libx264 @ 0x55c69e05be00] \u001b[0mprofile High, level 3.1\n","\u001b[1;36m[libx264 @ 0x55c69e05be00] \u001b[0m264 - core 152 r2854 e9a5903 - H.264/MPEG-4 AVC codec - Copyleft 2003-2017 - http://www.videolan.org/x264.html - options: cabac=1 ref=3 deblock=1:0:0 analyse=0x3:0x113 me=hex subme=7 psy=1 psy_rd=1.00:0.00 mixed_ref=1 me_range=16 chroma_me=1 trellis=1 8x8dct=1 cqm=0 deadzone=21,11 fast_pskip=1 chroma_qp_offset=-2 threads=3 lookahead_threads=1 sliced_threads=0 nr=0 decimate=1 interlaced=0 bluray_compat=0 constrained_intra=0 bframes=3 b_pyramid=2 b_adapt=1 b_bias=0 direct=1 weightb=1 open_gop=0 weightp=2 keyint=250 keyint_min=25 scenecut=40 intra_refresh=0 rc_lookahead=40 rc=crf mbtree=1 crf=23.0 qcomp=0.60 qpmin=0 qpmax=69 qpstep=4 ip_ratio=1.40 aq=1:1.00\n","Output #0, mp4, to './data/predictions/video.mp4':\n","  Metadata:\n","    encoder         : Lavf57.83.100\n","    Stream #0:0: Video: h264 (libx264) (avc1 / 0x31637661), yuvj420p(pc), 1280x720 [SAR 1:1 DAR 16:9], q=-1--1, 25 fps, 12800 tbn, 25 tbc\n","    Metadata:\n","      encoder         : Lavc57.107.100 libx264\n","    Side data:\n","      cpb: bitrate max/min/avg: 0/0/0 buffer size: 0 vbv_delay: -1\n","frame=  990 fps=5.1 q=-1.0 Lsize=   15894kB time=00:00:39.48 bitrate=3298.0kbits/s speed=0.205x    \n","video:15882kB audio:0kB subtitle:0kB other streams:0kB global headers:0kB muxing overhead: 0.079543%\n","\u001b[1;36m[libx264 @ 0x55c69e05be00] \u001b[0mframe I:5     Avg QP:19.27  size: 42170\n","\u001b[1;36m[libx264 @ 0x55c69e05be00] \u001b[0mframe P:251   Avg QP:22.83  size: 24323\n","\u001b[1;36m[libx264 @ 0x55c69e05be00] \u001b[0mframe B:734   Avg QP:27.29  size: 13551\n","\u001b[1;36m[libx264 @ 0x55c69e05be00] \u001b[0mconsecutive B-frames:  0.8%  0.8%  0.6% 97.8%\n","\u001b[1;36m[libx264 @ 0x55c69e05be00] \u001b[0mmb I  I16..4: 35.2% 60.3%  4.6%\n","\u001b[1;36m[libx264 @ 0x55c69e05be00] \u001b[0mmb P  I16..4: 10.1% 33.5%  2.6%  P16..4:  8.7%  6.5%  6.3%  0.0%  0.0%    skip:32.3%\n","\u001b[1;36m[libx264 @ 0x55c69e05be00] \u001b[0mmb B  I16..4:  2.9% 13.2%  0.3%  B16..8: 18.8%  7.6%  4.5%  direct: 6.1%  skip:46.6%  L0:51.3% L1:37.4% BI:11.3%\n","\u001b[1;36m[libx264 @ 0x55c69e05be00] \u001b[0m8x8 transform intra:76.2% inter:87.5%\n","\u001b[1;36m[libx264 @ 0x55c69e05be00] \u001b[0mcoded y,uvDC,uvAC intra: 61.5% 59.8% 4.5% inter: 17.6% 9.4% 0.5%\n","\u001b[1;36m[libx264 @ 0x55c69e05be00] \u001b[0mi16 v,h,dc,p: 42% 37% 20%  1%\n","\u001b[1;36m[libx264 @ 0x55c69e05be00] \u001b[0mi8 v,h,dc,ddl,ddr,vr,hd,vl,hu: 22% 18% 47%  4%  1%  2%  1%  2%  5%\n","\u001b[1;36m[libx264 @ 0x55c69e05be00] \u001b[0mi4 v,h,dc,ddl,ddr,vr,hd,vl,hu: 40% 29% 12%  3%  3%  4%  3%  3%  3%\n","\u001b[1;36m[libx264 @ 0x55c69e05be00] \u001b[0mi8c dc,h,v,p: 40% 27% 30%  3%\n","\u001b[1;36m[libx264 @ 0x55c69e05be00] \u001b[0mWeighted P-Frames: Y:0.4% UV:0.0%\n","\u001b[1;36m[libx264 @ 0x55c69e05be00] \u001b[0mref P L0: 51.5% 16.1% 16.3% 16.1%  0.0%\n","\u001b[1;36m[libx264 @ 0x55c69e05be00] \u001b[0mref B L0: 77.0% 16.7%  6.3%\n","\u001b[1;36m[libx264 @ 0x55c69e05be00] \u001b[0mref B L1: 89.5% 10.5%\n","\u001b[1;36m[libx264 @ 0x55c69e05be00] \u001b[0mkb/s:3285.30\n"]}]},{"cell_type":"code","source":[""],"metadata":{"id":"-3ehotdX0UXI"},"execution_count":null,"outputs":[]}]}